<svg width="30" height="30" viewBox="0 0 30 30" fill="none" xmlns="http://www.w3.org/2000/svg">
<path d="M23.3508 7.1443C23.5896 7.1443 23.8231 7.07351 24.0216 6.9408C24.2202 6.80813 24.3749 6.61955 24.4663 6.39892C24.5577 6.1783 24.5815 5.93551 24.5349 5.7013C24.4883 5.46709 24.3733 5.25196 24.2044 5.08313C24.0355 4.9143 23.8204 4.79934 23.5862 4.7528C23.3519 4.70626 23.1092 4.73021 22.8885 4.82167C22.668 4.91309 22.4794 5.06792 22.3468 5.26651C22.2142 5.46509 22.1435 5.69855 22.1435 5.93734C22.1435 6.09588 22.1748 6.25284 22.2354 6.3993C22.2961 6.54576 22.385 6.67884 22.4972 6.79092C22.6093 6.90301 22.7424 6.99188 22.8888 7.05255C23.0353 7.11317 23.1923 7.14434 23.3508 7.1443Z" fill="white"/>
<path d="M23.3512 10.6617C24.1587 10.6617 24.9482 10.4223 25.6197 9.97362C26.2911 9.52495 26.8145 8.88728 27.1235 8.14116C27.4325 7.39507 27.5134 6.57412 27.3559 5.78207C27.1983 4.98999 26.8094 4.26245 26.2384 3.69143C25.6674 3.1204 24.9398 2.73152 24.1478 2.57397C23.3557 2.41642 22.5347 2.49728 21.7887 2.80632C21.0426 3.11536 20.4049 3.63871 19.9562 4.31016C19.5075 4.98166 19.2681 5.77107 19.2681 6.57862C19.2691 7.6612 19.6997 8.69916 20.4652 9.46466C21.2307 10.2302 22.2686 10.6607 23.3512 10.6617ZM23.3512 3.52344C23.9742 3.52266 24.5825 3.71258 25.0944 4.06768C25.6062 4.42278 25.9972 4.92603 26.2147 5.50987C26.4321 6.09366 26.4657 6.73003 26.3108 7.33349C26.156 7.93695 25.8202 8.47853 25.3485 8.88549V8.79978C25.348 8.51199 25.258 8.23149 25.0909 7.9972C24.9238 7.76291 24.688 7.58645 24.416 7.49228C24.1033 7.70937 23.7317 7.82574 23.351 7.82574C22.9703 7.82574 22.5987 7.70937 22.286 7.49228C22.0137 7.58624 21.7773 7.76257 21.6096 7.99682C21.4419 8.23107 21.3512 8.51166 21.35 8.79978V8.88186C20.8794 8.47436 20.5447 7.9327 20.3908 7.32953C20.2369 6.72632 20.2711 6.09053 20.4889 5.50737C20.7067 4.9242 21.0976 4.42162 21.6092 4.06698C22.1209 3.71237 22.7287 3.5227 23.3512 3.52344Z" fill="white"/>
<path d="M6.53879 7.1443C6.77758 7.1443 7.011 7.07351 7.20954 6.9408C7.40813 6.80813 7.56288 6.61955 7.65421 6.39892C7.74558 6.1783 7.7695 5.93551 7.72288 5.7013C7.67625 5.46709 7.56125 5.25196 7.39233 5.08313C7.22346 4.9143 7.00829 4.79934 6.77408 4.7528C6.53988 4.70626 6.29708 4.73021 6.0765 4.82167C5.85592 4.91309 5.66738 5.06792 5.53475 5.26651C5.40213 5.46509 5.33138 5.69855 5.33146 5.93734C5.33146 6.09588 5.36267 6.25284 5.42338 6.3993C5.48404 6.54576 5.57296 6.67884 5.68508 6.79092C5.79721 6.90301 5.93029 6.99188 6.07679 7.05255C6.22325 7.11317 6.38025 7.14434 6.53879 7.1443Z" fill="white"/>
<path d="M6.53912 10.6617C7.3467 10.6617 8.13612 10.4223 8.80758 9.97362C9.47904 9.52495 10.0024 8.88728 10.3115 8.14116C10.6205 7.39507 10.7013 6.57412 10.5438 5.78207C10.3862 4.98999 9.99737 4.26245 9.42633 3.69143C8.85529 3.1204 8.12775 2.73152 7.3357 2.57397C6.54366 2.41642 5.72266 2.49728 4.97658 2.80632C4.2305 3.11536 3.5928 3.63871 3.14414 4.31016C2.69548 4.98166 2.45601 5.77107 2.45601 6.57862C2.45706 7.6612 2.88759 8.69916 3.65309 9.46466C4.41858 10.2302 5.45654 10.6607 6.53912 10.6617ZM6.53912 3.52344C7.16212 3.52266 7.77041 3.71258 8.28229 4.06768C8.7942 4.42278 9.18512 4.92603 9.40258 5.50987C9.62004 6.09366 9.65358 6.73003 9.49875 7.33349C9.34391 7.93695 9.00808 8.47853 8.53637 8.88549V8.79978C8.53591 8.51199 8.44591 8.23149 8.27883 7.9972C8.11175 7.76291 7.87587 7.58645 7.60395 7.49228C7.29125 7.70937 6.91962 7.82574 6.53895 7.82574C6.15825 7.82574 5.78666 7.70937 5.47395 7.49228C5.20162 7.58624 4.96525 7.76257 4.79754 7.99682C4.62983 8.23107 4.53908 8.51166 4.53791 8.79978V8.88186C4.06731 8.47436 3.73261 7.9327 3.5787 7.32953C3.42478 6.72632 3.45902 6.09053 3.67681 5.50737C3.8946 4.9242 4.28554 4.42162 4.79716 4.06698C5.30879 3.71237 5.91662 3.5227 6.53912 3.52344Z" fill="white"/>
<path d="M23.3508 21.524C23.112 21.524 22.8786 21.5948 22.68 21.7275C22.4815 21.8602 22.3268 22.0487 22.2354 22.2694C22.144 22.49 22.1201 22.7328 22.1668 22.967C22.2133 23.2012 22.3284 23.4163 22.4973 23.5852C22.6661 23.754 22.8813 23.8689 23.1155 23.9155C23.3498 23.962 23.5925 23.9381 23.8131 23.8466C24.0337 23.7552 24.2223 23.6004 24.3549 23.4018C24.4875 23.2032 24.5582 22.9697 24.5582 22.7309C24.558 22.4108 24.4308 22.1038 24.2044 21.8775C23.978 21.6512 23.671 21.524 23.3508 21.524Z" fill="white"/>
<path d="M23.3512 19.2888C22.5438 19.2888 21.7545 19.5283 21.0832 19.977C20.4118 20.4255 19.8886 21.0632 19.5796 21.8091C19.2706 22.5551 19.1898 23.376 19.3472 24.1679C19.5047 24.9598 19.8935 25.6872 20.4644 26.2582C21.0353 26.8292 21.7626 27.2181 22.5545 27.3757C23.3464 27.5334 24.1673 27.4526 24.9133 27.1438C25.6593 26.8349 26.297 26.3118 26.7458 25.6405C27.1945 24.9693 27.4341 24.18 27.4343 23.3726C27.4335 22.2899 27.003 21.2518 26.2375 20.4861C25.472 19.7205 24.4339 19.2898 23.3512 19.2888ZM25.3485 25.6784V25.5927C25.348 25.3048 25.258 25.0243 25.091 24.79C24.9239 24.5556 24.688 24.379 24.416 24.2848C24.1034 24.5022 23.7318 24.6187 23.351 24.6187C22.9703 24.6187 22.5986 24.5022 22.286 24.2848C22.0137 24.3788 21.7773 24.5552 21.6095 24.7895C21.4419 25.0239 21.3511 25.3045 21.35 25.5927V25.6744C20.8794 25.2663 20.5448 24.724 20.3911 24.1204C20.2374 23.5167 20.272 22.8805 20.4901 22.297C20.7082 21.7135 21.0995 21.2107 21.6114 20.8558C22.1234 20.501 22.7316 20.3112 23.3545 20.3118C23.9775 20.3124 24.5853 20.5035 25.0966 20.8593C25.6079 21.2151 25.9981 21.7188 26.2151 22.3027C26.432 22.8866 26.4653 23.5229 26.3104 24.1262C26.1555 24.7296 25.8198 25.2712 25.3485 25.6784Z" fill="white"/>
<path d="M6.53879 21.524C6.29996 21.5239 6.06642 21.5945 5.86779 21.7272C5.66913 21.8597 5.51429 22.0483 5.42279 22.2689C5.33133 22.4895 5.30733 22.7323 5.35388 22.9665C5.40042 23.2008 5.51538 23.416 5.68421 23.5849C5.85309 23.7538 6.06821 23.8688 6.30246 23.9154C6.53671 23.962 6.7795 23.9381 7.00017 23.8467C7.22079 23.7553 7.40938 23.6005 7.54204 23.4019C7.67467 23.2033 7.74546 22.9698 7.74538 22.7309C7.74529 22.4109 7.61813 22.1041 7.39188 21.8777C7.16563 21.6514 6.85879 21.5242 6.53879 21.524Z" fill="white"/>
<path d="M6.53912 19.2888C5.73171 19.2888 4.94241 19.5283 4.27108 19.977C3.59975 20.4255 3.07651 21.0632 2.76752 21.8091C2.45853 22.5551 2.37766 23.376 2.53515 24.1679C2.69263 24.9598 3.0814 25.6872 3.65229 26.2582C4.22316 26.8292 4.95054 27.2181 5.74246 27.3757C6.53433 27.5334 7.35521 27.4526 8.1012 27.1438C8.84725 26.8349 9.48495 26.3118 9.93366 25.6405C10.3824 24.9693 10.622 24.18 10.6222 23.3726C10.6214 22.2899 10.191 21.2518 9.42541 20.4861C8.65991 19.7205 7.62183 19.2898 6.53912 19.2888ZM8.53637 25.6784V25.5927C8.53595 25.3048 8.44595 25.0243 8.27887 24.79C8.11179 24.5556 7.87591 24.379 7.60395 24.2848C7.29133 24.5022 6.9197 24.6187 6.53896 24.6187C6.15821 24.6187 5.78658 24.5022 5.47396 24.2848C5.20158 24.3788 4.96521 24.5552 4.7975 24.7895C4.62979 25.0239 4.53908 25.3045 4.53791 25.5927V25.6744C4.06731 25.2663 3.73275 24.724 3.57905 24.1204C3.42536 23.5167 3.45988 22.8805 3.67799 22.297C3.8961 21.7135 4.28737 21.2107 4.79937 20.8558C5.31133 20.501 5.91954 20.3112 6.5425 20.3118C7.16541 20.3124 7.77325 20.5035 8.2845 20.8593C8.79579 21.2151 9.18608 21.7188 9.403 22.3027C9.61995 22.8866 9.6532 23.5229 9.49833 24.1262C9.34341 24.7296 9.00779 25.2712 8.53637 25.6784Z" fill="white"/>
<path d="M12.4473 5.95145C12.5773 5.95145 12.7044 5.91291 12.8125 5.8407C12.9205 5.76849 13.0048 5.66587 13.0545 5.54578C13.1043 5.42566 13.1173 5.29353 13.0919 5.16607C13.0665 5.03857 13.004 4.92149 12.912 4.82957C12.8201 4.73766 12.703 4.67507 12.5755 4.6497C12.4481 4.62437 12.3159 4.63737 12.1958 4.68712C12.0758 4.73682 11.9731 4.82107 11.9009 4.92916C11.8287 5.03724 11.7902 5.16428 11.7902 5.29428C11.7902 5.38057 11.8072 5.46603 11.8402 5.54578C11.8732 5.62549 11.9216 5.69795 11.9826 5.75899C12.0437 5.81999 12.1161 5.86841 12.1958 5.90145C12.2756 5.93445 12.361 5.95145 12.4473 5.95145Z" fill="white"/>
<path d="M17.4473 5.95145C17.5773 5.95145 17.7044 5.91291 17.8125 5.8407C17.9205 5.76849 18.0048 5.66587 18.0545 5.54578C18.1043 5.42566 18.1173 5.29353 18.0919 5.16607C18.0665 5.03857 18.004 4.92149 17.912 4.82957C17.8201 4.73766 17.703 4.67507 17.5755 4.6497C17.4481 4.62437 17.3159 4.63737 17.1958 4.68712C17.0758 4.73682 16.9731 4.82107 16.9009 4.92916C16.8287 5.03724 16.7902 5.16428 16.7902 5.29428C16.7903 5.46853 16.8595 5.63566 16.9828 5.75887C17.106 5.88207 17.2731 5.95137 17.4473 5.95145Z" fill="white"/>
<path d="M14.9477 5.95146C15.0778 5.95175 15.205 5.91346 15.3132 5.84141C15.4215 5.76937 15.5059 5.66683 15.5559 5.54679C15.6058 5.42671 15.6191 5.29454 15.5939 5.16696C15.5687 5.03937 15.5062 4.92212 15.4144 4.83008C15.3225 4.73804 15.2054 4.67529 15.0779 4.64983C14.9504 4.62433 14.8182 4.63729 14.698 4.68696C14.5778 4.73666 14.4751 4.82091 14.4028 4.929C14.3305 5.03712 14.292 5.16425 14.292 5.29429C14.292 5.46833 14.361 5.63525 14.4839 5.75846C14.6069 5.88166 14.7737 5.95108 14.9477 5.95146Z" fill="white"/>
<path d="M12.4473 23.9998C12.3174 23.9998 12.1903 24.0383 12.0822 24.1105C11.9742 24.1827 11.8899 24.2854 11.8402 24.4055C11.7904 24.5256 11.7774 24.6577 11.8028 24.7852C11.8281 24.9127 11.8907 25.0298 11.9826 25.1217C12.0745 25.2136 12.1917 25.2762 12.3191 25.3015C12.4466 25.3269 12.5787 25.3139 12.6988 25.2642C12.8189 25.2144 12.9215 25.1302 12.9938 25.0221C13.066 24.914 13.1045 24.787 13.1045 24.657C13.1044 24.4827 13.0352 24.3156 12.912 24.1924C12.7887 24.0692 12.6216 23.9999 12.4473 23.9998Z" fill="white"/>
<path d="M17.4473 23.9998C17.3174 23.9998 17.1903 24.0383 17.0822 24.1105C16.9742 24.1827 16.8899 24.2854 16.8402 24.4055C16.7904 24.5256 16.7774 24.6577 16.8028 24.7852C16.8281 24.9127 16.8907 25.0298 16.9826 25.1217C17.0745 25.2136 17.1917 25.2762 17.3191 25.3015C17.4466 25.3269 17.5787 25.3139 17.6988 25.2642C17.8189 25.2144 17.9216 25.1302 17.9938 25.0221C18.066 24.914 18.1045 24.787 18.1045 24.657C18.1045 24.4827 18.0353 24.3155 17.912 24.1923C17.7888 24.069 17.6216 23.9998 17.4473 23.9998Z" fill="white"/>
<path d="M14.9477 23.9998C14.8177 23.9997 14.6906 24.0382 14.5825 24.1104C14.4744 24.1825 14.3901 24.2852 14.3403 24.4052C14.2905 24.5253 14.2774 24.6575 14.3028 24.785C14.328 24.9125 14.3906 25.0296 14.4825 25.1216C14.5744 25.2135 14.6915 25.2761 14.819 25.3015C14.9465 25.3269 15.0787 25.3139 15.1988 25.2642C15.3189 25.2145 15.4215 25.1302 15.4938 25.0221C15.566 24.914 15.6045 24.787 15.6045 24.657C15.6045 24.4827 15.5353 24.3157 15.4122 24.1924C15.289 24.0692 15.122 23.9999 14.9477 23.9998Z" fill="white"/>
<path d="M24.6287 11.8188C24.4988 11.8191 24.3718 11.8579 24.264 11.9302C24.1561 12.0027 24.0721 12.1054 24.0225 12.2255C23.973 12.3456 23.9602 12.4777 23.9858 12.6051C24.0113 12.7325 24.074 12.8495 24.166 12.9412C24.2579 13.033 24.375 13.0954 24.5025 13.1207C24.6299 13.1459 24.762 13.1328 24.882 13.083C25.002 13.0332 25.1045 12.949 25.1767 12.841C25.2488 12.7329 25.2873 12.6059 25.2873 12.476C25.2873 12.3896 25.2702 12.304 25.237 12.2242C25.2039 12.1444 25.1554 12.0719 25.0942 12.0109C25.033 11.9498 24.9605 11.9015 24.8806 11.8685C24.8007 11.8355 24.7151 11.8187 24.6287 11.8188Z" fill="white"/>
<path d="M24.6287 16.8185C24.4988 16.8187 24.3718 16.8575 24.264 16.9299C24.1561 17.0023 24.0721 17.105 24.0225 17.2251C23.973 17.3452 23.9602 17.4773 23.9858 17.6047C24.0113 17.7321 24.074 17.8491 24.166 17.9408C24.2579 18.0326 24.375 18.095 24.5025 18.1203C24.6299 18.1455 24.762 18.1325 24.882 18.0827C25.002 18.0329 25.1045 17.9486 25.1767 17.8406C25.2488 17.7325 25.2873 17.6055 25.2873 17.4756C25.2873 17.3892 25.2703 17.3036 25.2372 17.2238C25.204 17.144 25.1555 17.0715 25.0943 17.0104C25.0331 16.9494 24.9605 16.901 24.8806 16.868C24.8007 16.8351 24.7151 16.8182 24.6287 16.8185Z" fill="white"/>
<path d="M24.6287 15.6328C24.9916 15.6328 25.2859 15.3386 25.2859 14.9756C25.2859 14.6127 24.9916 14.3185 24.6287 14.3185C24.2657 14.3185 23.9715 14.6127 23.9715 14.9756C23.9715 15.3386 24.2657 15.6328 24.6287 15.6328Z" fill="white"/>
<path d="M5.266 11.8188C5.136 11.8188 5.00896 11.8573 4.90088 11.9296C4.79279 12.0018 4.70854 12.1044 4.65883 12.2245C4.60908 12.3446 4.59608 12.4767 4.62142 12.6042C4.64679 12.7317 4.70938 12.8488 4.80129 12.9407C4.89321 13.0326 5.01029 13.0952 5.13779 13.1205C5.26525 13.1459 5.39738 13.1329 5.5175 13.0832C5.63758 13.0334 5.74021 12.9492 5.81242 12.8411C5.88463 12.733 5.92317 12.606 5.92317 12.476C5.92308 12.3017 5.85379 12.1346 5.73058 12.0114C5.60738 11.8882 5.44025 11.8189 5.266 11.8188Z" fill="white"/>
<path d="M5.266 16.8185C5.136 16.8185 5.00896 16.857 4.90088 16.9292C4.79279 17.0014 4.70854 17.104 4.65883 17.2241C4.60908 17.3442 4.59608 17.4764 4.62142 17.6038C4.64679 17.7313 4.70938 17.8484 4.80129 17.9403C4.89321 18.0322 5.01029 18.0948 5.13779 18.1202C5.26525 18.1455 5.39738 18.1325 5.5175 18.0828C5.63758 18.033 5.74021 17.9488 5.81242 17.8407C5.88463 17.7327 5.92317 17.6056 5.92317 17.4756C5.92317 17.3013 5.85392 17.1342 5.73071 17.0109C5.60746 16.8877 5.44029 16.8185 5.266 16.8185Z" fill="white"/>
<path d="M5.266 14.3185C5.136 14.3185 5.00896 14.357 4.90088 14.4292C4.79279 14.5014 4.70854 14.604 4.65883 14.7241C4.60908 14.8442 4.59608 14.9764 4.62142 15.1038C4.64679 15.2313 4.70938 15.3484 4.80129 15.4403C4.89321 15.5322 5.01029 15.5948 5.13779 15.6202C5.26525 15.6455 5.39738 15.6325 5.5175 15.5828C5.63758 15.533 5.74021 15.4488 5.81242 15.3407C5.88463 15.2327 5.92317 15.1056 5.92317 14.9756C5.92308 14.8014 5.85379 14.6342 5.73058 14.511C5.60738 14.3878 5.44025 14.3185 5.266 14.3185Z" fill="white"/>
<path d="M16.8032 18.5433V18.8689H10.5821V11.4296H11.2132V11.6691C11.2132 11.7469 11.2442 11.8215 11.2992 11.8765C11.3542 11.9315 11.4288 11.9624 11.5066 11.9624C11.5844 11.9624 11.659 11.9315 11.714 11.8765C11.769 11.8215 11.7999 11.7469 11.7999 11.6691V11.4296H12.6698V11.6691C12.6725 11.7451 12.7045 11.8172 12.7593 11.87C12.814 11.9229 12.8872 11.9525 12.9633 11.9525C13.0394 11.9525 13.1125 11.9229 13.1673 11.87C13.222 11.8172 13.2541 11.7451 13.2568 11.6691V11.4296H14.127V11.6691C14.127 11.7469 14.1579 11.8215 14.2129 11.8765C14.268 11.9315 14.3425 11.9624 14.4203 11.9624C14.4982 11.9624 14.5727 11.9315 14.6277 11.8765C14.6828 11.8215 14.7137 11.7469 14.7137 11.6691V11.4296H15.5835V11.6691C15.5835 11.7469 15.6145 11.8215 15.6695 11.8765C15.7245 11.9315 15.7991 11.9624 15.8769 11.9624C15.9547 11.9624 16.0293 11.9315 16.0843 11.8765C16.1393 11.8215 16.1702 11.7469 16.1702 11.6691V11.4296H16.8028V15.3742L17.3895 14.7875V11.3251C17.3896 11.2617 17.3772 11.1989 17.353 11.1403C17.3288 11.0817 17.2933 11.0285 17.2485 10.9836C17.2036 10.9388 17.1504 10.9032 17.0918 10.879C17.0332 10.8548 16.9704 10.8425 16.907 10.8426H16.1706V10.6082C16.1706 10.5304 16.1397 10.4558 16.0847 10.4008C16.0296 10.3458 15.955 10.3149 15.8772 10.3149C15.7995 10.3149 15.7248 10.3458 15.6698 10.4008C15.6148 10.4558 15.5839 10.5304 15.5839 10.6082V10.8415H14.714V10.6082C14.714 10.5304 14.6831 10.4558 14.6281 10.4008C14.5731 10.3458 14.4985 10.3149 14.4207 10.3149C14.3429 10.3149 14.2683 10.3458 14.2133 10.4008C14.1583 10.4558 14.1274 10.5304 14.1274 10.6082V10.8415H13.2572V10.6082C13.2545 10.5322 13.2224 10.4601 13.1676 10.4072C13.1129 10.3544 13.0397 10.3248 12.9637 10.3248C12.8875 10.3248 12.8144 10.3544 12.7597 10.4072C12.7049 10.4601 12.6728 10.5322 12.6701 10.6082V10.8415H11.8003V10.6082C11.8003 10.5304 11.7694 10.4558 11.7144 10.4008C11.6593 10.3458 11.5847 10.3149 11.507 10.3149C11.4291 10.3149 11.3545 10.3458 11.2995 10.4008C11.2445 10.4558 11.2136 10.5304 11.2136 10.6082V10.8415H10.4783C10.4149 10.8413 10.352 10.8537 10.2934 10.8779C10.2348 10.902 10.1815 10.9376 10.1367 10.9824C10.0918 11.0272 10.0563 11.0805 10.0321 11.1392C10.008 11.1978 9.99562 11.2606 9.99579 11.324V18.9802C9.99683 19.1073 10.0482 19.2287 10.1387 19.318C10.2291 19.4072 10.3512 19.4569 10.4783 19.4562H16.9073C17.0344 19.4569 17.1565 19.4072 17.247 19.318C17.3374 19.2287 17.3888 19.1073 17.3898 18.9802V18.0084L16.992 18.4062C16.9392 18.4645 16.8749 18.5112 16.8032 18.5433Z" fill="white"/>
<path d="M18.3436 14.5687L16.2881 16.6242L17.1625 17.4986L19.218 15.4431L18.3436 14.5687Z" fill="white"/>
<path d="M15.7387 18.2695L16.5315 18.0887C16.5655 18.0809 16.5965 18.0637 16.6212 18.0391L16.8614 17.799L15.9883 16.9247L15.7485 17.1649C15.7237 17.1897 15.7065 17.2209 15.6986 17.255L15.5177 18.0475C15.5107 18.078 15.5116 18.1097 15.5202 18.1398C15.5288 18.1699 15.5449 18.1972 15.567 18.2195C15.589 18.2416 15.6164 18.2578 15.6464 18.2666C15.6764 18.2754 15.7082 18.2764 15.7387 18.2695Z" fill="white"/>
<path d="M19.9275 14.4729L19.3151 13.8606C19.2803 13.8258 19.2332 13.8063 19.184 13.8063C19.1348 13.8063 19.0877 13.8258 19.0529 13.8606L18.6431 14.2703L19.5177 15.1446L19.9275 14.7348C19.9622 14.7 19.9817 14.6529 19.9817 14.6038C19.9817 14.5547 19.9622 14.5076 19.9275 14.4729Z" fill="white"/>
<path d="M13.6926 12.9867C13.2906 12.9867 12.8976 13.1059 12.5633 13.3292C12.229 13.5526 11.9685 13.8701 11.8147 14.2415C11.6608 14.6129 11.6206 15.0216 11.699 15.4159C11.7774 15.8102 11.971 16.1724 12.2553 16.4567C12.5396 16.741 12.9018 16.9346 13.2961 17.013C13.6904 17.0914 14.0991 17.0512 14.4705 16.8974C14.842 16.7435 15.1594 16.4829 15.3828 16.1487C15.6061 15.8144 15.7253 15.4214 15.7253 15.0194C15.7253 14.4803 15.5112 13.9632 15.13 13.582C14.7487 13.2008 14.2317 12.9867 13.6926 12.9867ZM14.6537 14.7072L13.6351 15.7254C13.5829 15.7775 13.5122 15.8068 13.4384 15.8068C13.3646 15.8068 13.2938 15.7775 13.2416 15.7254L12.7352 15.219C12.6892 15.1659 12.665 15.0973 12.6675 15.027C12.6699 14.9567 12.6988 14.8899 12.7485 14.8402C12.7981 14.7903 12.8648 14.7611 12.935 14.7584C13.0053 14.7557 13.074 14.7797 13.1273 14.8255L13.4366 15.1347L14.258 14.3134C14.3102 14.2609 14.3811 14.2313 14.4552 14.2312C14.5292 14.231 14.6003 14.2602 14.6527 14.3124C14.7052 14.3647 14.7348 14.4356 14.735 14.5097C14.7351 14.5837 14.7059 14.6548 14.6537 14.7072Z" fill="white"/>
</svg>
