<svg width="30" height="30" viewBox="0 0 30 30" fill="none" xmlns="http://www.w3.org/2000/svg">
<g clip-path="url(#clip0_740_10802)">
<path d="M23.75 8.75H20V6.875C20 6.0462 19.6708 5.25134 19.0847 4.66529C18.4987 4.07924 17.7038 3.75 16.875 3.75H13.125C12.2962 3.75 11.5013 4.07924 10.9153 4.66529C10.3292 5.25134 10 6.0462 10 6.875V8.75H6.25C5.25544 8.75 4.30161 9.14509 3.59835 9.84835C2.89509 10.5516 2.5 11.5054 2.5 12.5V22.5C2.5 23.4946 2.89509 24.4484 3.59835 25.1517C4.30161 25.8549 5.25544 26.25 6.25 26.25H23.75C24.7446 26.25 25.6984 25.8549 26.4017 25.1517C27.1049 24.4484 27.5 23.4946 27.5 22.5V12.5C27.5 11.5054 27.1049 10.5516 26.4017 9.84835C25.6984 9.14509 24.7446 8.75 23.75 8.75ZM18.75 11.25V23.75H11.25V11.25H18.75ZM12.5 6.875C12.5 6.70924 12.5658 6.55027 12.6831 6.43306C12.8003 6.31585 12.9592 6.25 13.125 6.25H16.875C17.0408 6.25 17.1997 6.31585 17.3169 6.43306C17.4342 6.55027 17.5 6.70924 17.5 6.875V8.75H12.5V6.875ZM5 22.5V12.5C5 12.1685 5.1317 11.8505 5.36612 11.6161C5.60054 11.3817 5.91848 11.25 6.25 11.25H8.75V23.75H6.25C5.91848 23.75 5.60054 23.6183 5.36612 23.3839C5.1317 23.1495 5 22.8315 5 22.5ZM25 22.5C25 22.8315 24.8683 23.1495 24.6339 23.3839C24.3995 23.6183 24.0815 23.75 23.75 23.75H21.25V11.25H23.75C24.0815 11.25 24.3995 11.3817 24.6339 11.6161C24.8683 11.8505 25 12.1685 25 12.5V22.5Z" fill="white"/>
</g>
<defs>
<clipPath id="clip0_740_10802">
<rect width="30" height="30" fill="white"/>
</clipPath>
</defs>
</svg>
