<svg width="30" height="30" viewBox="0 0 30 30" fill="none" xmlns="http://www.w3.org/2000/svg">
  <g clip-path="url(#clip0_740_10859)">
    <path
      d="M25.525 12.725L15.8875 2.875C15.7713 2.75784 15.633 2.66484 15.4807 2.60138C15.3284 2.53792 15.165 2.50525 15 2.50525C14.835 2.50525 14.6716 2.53792 14.5193 2.60138C14.367 2.66484 14.2287 2.75784 14.1125 2.875L4.475 12.7375C4.2418 12.9726 4.05762 13.2517 3.93316 13.5585C3.8087 13.8654 3.74644 14.1939 3.75 14.525V25C3.74903 25.6399 3.99347 26.2558 4.43297 26.7209C4.87247 27.186 5.47358 27.4648 6.1125 27.5H23.8875C24.5264 27.4648 25.1275 27.186 25.567 26.7209C26.0065 26.2558 26.251 25.6399 26.25 25V14.525C26.251 13.8537 25.991 13.2082 25.525 12.725ZM12.5 25V17.5H17.5V25H12.5ZM23.75 25H20V16.25C20 15.9185 19.8683 15.6005 19.6339 15.3661C19.3995 15.1317 19.0815 15 18.75 15H11.25C10.9185 15 10.6005 15.1317 10.3661 15.3661C10.1317 15.6005 10 15.9185 10 16.25V25H6.25V14.475L15 5.5375L23.75 14.525V25Z"
      fill="white" />
  </g>
  <defs>
    <clipPath id="clip0_740_10859">
      <rect width="30" height="30" fill="white" />
    </clipPath>
  </defs>
</svg>