<svg width="30" height="30" viewBox="0 0 30 30" fill="none" xmlns="http://www.w3.org/2000/svg">
<g clip-path="url(#clip0_740_10810)">
<path d="M15 16.875C16.0355 16.875 16.875 16.0355 16.875 15C16.875 13.9645 16.0355 13.125 15 13.125C13.9645 13.125 13.125 13.9645 13.125 15C13.125 16.0355 13.9645 16.875 15 16.875Z" fill="white"/>
<path d="M27.3625 12.9L26.375 9.75C26.2684 9.38594 26.0895 9.04709 25.8491 8.75365C25.6087 8.46021 25.3116 8.2182 24.9757 8.04205C24.6397 7.8659 24.2717 7.75922 23.8936 7.72837C23.5155 7.69752 23.1351 7.74314 22.775 7.8625L22.35 8C22.0171 8.11006 21.6624 8.13798 21.3164 8.08139C20.9703 8.0248 20.643 7.88538 20.3625 7.675L20.225 7.575C19.9512 7.36547 19.7305 7.09453 19.5807 6.78404C19.4309 6.47355 19.3562 6.13219 19.3625 5.7875V5.4375C19.3686 4.65253 19.0629 3.89724 18.5125 3.3375C18.2507 3.07307 17.9393 2.86295 17.596 2.71923C17.2528 2.57551 16.8846 2.501 16.5125 2.5H13.325C12.5602 2.50988 11.8303 2.82149 11.2942 3.36698C10.7581 3.91247 10.4591 4.64766 10.4625 5.4125V5.7125C10.4613 6.07534 10.3787 6.43329 10.2208 6.75996C10.0628 7.08663 9.83362 7.37369 9.55 7.6L9.3875 7.725C9.07418 7.96203 8.70771 8.11895 8.31994 8.18212C7.93218 8.2453 7.53485 8.21282 7.1625 8.0875C6.82052 7.96916 6.45808 7.92143 6.09712 7.94722C5.73616 7.973 5.38419 8.07175 5.0625 8.2375C4.72757 8.40373 4.43043 8.63712 4.18957 8.92313C3.94872 9.20914 3.76931 9.54166 3.6625 9.9L2.6375 13.15C2.3998 13.8827 2.46076 14.6797 2.80713 15.3678C3.15351 16.0558 3.75734 16.5795 4.4875 16.825H4.6875C5.02432 16.9512 5.32663 17.1551 5.56988 17.4201C5.81313 17.685 5.99047 18.0036 6.0875 18.35L6.1625 18.55C6.30184 18.9327 6.34844 19.3429 6.29846 19.7471C6.24849 20.1513 6.10336 20.5378 5.875 20.875C5.41277 21.5045 5.2178 22.291 5.3325 23.0635C5.44721 23.836 5.86231 24.532 6.4875 25L9.075 26.9625C9.56494 27.3187 10.1568 27.5072 10.7625 27.5C10.9246 27.5159 11.0879 27.5159 11.25 27.5C11.6251 27.4274 11.9815 27.2791 12.2974 27.0642C12.6134 26.8493 12.8822 26.5722 13.0875 26.25L13.375 25.8375C13.5767 25.5482 13.8435 25.3104 14.154 25.1432C14.4645 24.976 14.81 24.8841 15.1625 24.875C15.5319 24.8659 15.8977 24.9506 16.2256 25.121C16.5534 25.2915 16.8328 25.5423 17.0375 25.85L17.1875 26.0625C17.4006 26.3797 17.6764 26.6499 17.9979 26.8565C18.3194 27.063 18.6798 27.2016 19.0568 27.2637C19.4339 27.3257 19.8196 27.31 20.1904 27.2173C20.5611 27.1247 20.909 26.9571 21.2125 26.725L23.75 24.825C24.35 24.359 24.7489 23.6812 24.8652 22.9305C24.9814 22.1798 24.806 21.4131 24.375 20.7875L24.05 20.3125C23.8546 20.0105 23.7266 19.67 23.6748 19.314C23.623 18.9581 23.6487 18.5951 23.75 18.25C23.8533 17.8806 24.0449 17.5418 24.3085 17.263C24.572 16.9843 24.8994 16.7739 25.2625 16.65L25.5125 16.5625C26.2359 16.3115 26.8333 15.789 27.1786 15.1056C27.5238 14.4221 27.5897 13.6312 27.3625 12.9ZM15 19.375C14.1347 19.375 13.2888 19.1184 12.5694 18.6377C11.8499 18.1569 11.2892 17.4737 10.958 16.6742C10.6269 15.8748 10.5403 14.9951 10.7091 14.1465C10.8779 13.2978 11.2946 12.5183 11.9064 11.9064C12.5183 11.2946 13.2978 10.8779 14.1465 10.7091C14.9951 10.5403 15.8748 10.6269 16.6742 10.958C17.4737 11.2892 18.1569 11.8499 18.6377 12.5694C19.1184 13.2888 19.375 14.1347 19.375 15C19.375 16.1603 18.9141 17.2731 18.0936 18.0936C17.2731 18.9141 16.1603 19.375 15 19.375Z" fill="white"/>
</g>
<defs>
<clipPath id="clip0_740_10810">
<rect width="30" height="30" fill="white"/>
</clipPath>
</defs>
</svg>
