<svg width="30" height="30" viewBox="0 0 30 30" fill="none" xmlns="http://www.w3.org/2000/svg">
<path d="M3.61153 5.875C4.98653 6.55 6.31153 7.2125 7.68653 7.925" stroke="white" stroke-width="0.74" stroke-linecap="round" stroke-linejoin="round"/>
<path d="M7.68654 7.91254L12.0365 5.41254" stroke="white" stroke-width="0.74" stroke-linecap="round" stroke-linejoin="round"/>
<path d="M7.74895 7.90002C7.74895 9.50002 7.74895 12.7 7.74895 12.7" stroke="white" stroke-width="0.74" stroke-linecap="round" stroke-linejoin="round"/>
<path d="M12.1615 5.32502C12.2156 6.10325 12.2156 6.88429 12.1615 7.66252V9.71252C12.1615 9.88752 12.1615 10.0875 12.049 10.2125C11.9365 10.3375 11.7115 10.4 11.549 10.5C11.174 10.7 10.8115 10.9125 10.449 11.125C10.0865 11.3375 7.82403 12.7375 7.71153 12.7625C7.36023 12.6506 7.02429 12.4952 6.71153 12.3L5.63653 11.775C5.12403 11.5125 4.61153 11.2375 4.08653 10.9875C3.88806 10.9045 3.69941 10.7996 3.52403 10.675C3.44501 10.5301 3.41435 10.3636 3.43653 10.2C3.43653 9.92502 3.43653 8.50002 3.43653 8.07502C3.39866 7.32967 3.39866 6.58288 3.43653 5.83752C3.43653 5.62502 4.09903 5.33752 4.39903 5.16252L5.56153 4.46252C6.30508 3.93804 7.11673 3.51749 7.97403 3.21252C8.71265 3.42973 9.42205 3.73616 10.0865 4.12502C10.8355 4.41644 11.5354 4.82116 12.1615 5.32502Z" stroke="white" stroke-width="0.99" stroke-linecap="round" stroke-linejoin="round"/>
<path d="M17.824 5.875C19.199 6.55 20.5115 7.225 21.8865 7.925" stroke="white" stroke-width="0.74" stroke-linecap="round" stroke-linejoin="round"/>
<path d="M21.8865 7.91254L26.249 5.41254" stroke="white" stroke-width="0.74" stroke-linecap="round" stroke-linejoin="round"/>
<path d="M21.9614 7.90002C21.9614 9.50002 21.9614 12.7 21.9614 12.7" stroke="white" stroke-width="0.74" stroke-linecap="round" stroke-linejoin="round"/>
<path d="M26.374 5.32502C26.4217 6.10346 26.4217 6.88409 26.374 7.66252V9.71252C26.374 9.88752 26.4365 10.0875 26.274 10.2125C26.1115 10.3375 25.9365 10.4 25.7615 10.5L24.6615 11.125C24.1865 11.4 22.049 12.7375 21.9365 12.7625C21.5803 12.6533 21.2399 12.4978 20.924 12.3L19.8615 11.775C19.3365 11.5125 18.824 11.2375 18.299 10.9875C18.1033 10.8989 17.9152 10.7944 17.7365 10.675C17.6634 10.528 17.633 10.3634 17.649 10.2C17.649 9.92502 17.649 8.50002 17.649 8.07502C17.6112 7.32967 17.6112 6.58288 17.649 5.83752C17.724 5.62502 18.3115 5.33752 18.6115 5.16252L19.7865 4.46252C20.5243 3.93591 21.3321 3.51516 22.1865 3.21252C22.926 3.42733 23.6357 3.73388 24.299 4.12502C25.0459 4.4209 25.7451 4.82524 26.374 5.32502Z" stroke="white" stroke-width="0.99" stroke-linecap="round" stroke-linejoin="round"/>
<path d="M18.0489 19.9C19.4364 20.575 20.7489 21.25 22.1239 21.95" stroke="white" stroke-width="0.74" stroke-linecap="round" stroke-linejoin="round"/>
<path d="M22.1239 21.9375L26.4739 19.4375" stroke="white" stroke-width="0.74" stroke-linecap="round" stroke-linejoin="round"/>
<path d="M22.1865 21.925C22.1865 23.525 22.1865 26.725 22.1865 26.725" stroke="white" stroke-width="0.74" stroke-linecap="round" stroke-linejoin="round"/>
<path d="M26.6114 19.3375C26.6582 20.116 26.6582 20.8966 26.6114 21.675V23.7375C26.6114 23.9125 26.6114 24.1125 26.4989 24.225C26.3397 24.3368 26.1726 24.4371 25.9989 24.525L24.8989 25.15C24.4114 25.425 22.2864 26.7625 22.1614 26.7875C21.8144 26.665 21.4796 26.5102 21.1614 26.325L20.0989 25.8L18.5364 25C18.3375 24.9231 18.1486 24.8224 17.9739 24.7C17.8957 24.5548 17.8651 24.3886 17.8864 24.225C17.8864 23.95 17.8864 22.525 17.8864 22.1C17.8486 21.3547 17.8486 20.6079 17.8864 19.8625C17.8864 19.65 18.5489 19.3625 18.8489 19.1875L20.1114 18.4625C20.8434 17.941 21.6422 17.5206 22.4864 17.2125C23.2251 17.4297 23.9345 17.7362 24.5989 18.125C25.3222 18.4349 25.9994 18.8429 26.6114 19.3375Z" stroke="white" stroke-width="0.99" stroke-linecap="round" stroke-linejoin="round"/>
<path d="M3.56148 19.3C4.98648 19.975 6.23648 20.6625 7.63648 21.35" stroke="white" stroke-width="0.74" stroke-linecap="round" stroke-linejoin="round"/>
<path d="M7.63649 21.3375L11.9865 18.8375" stroke="white" stroke-width="0.74" stroke-linecap="round" stroke-linejoin="round"/>
<path d="M7.69905 21.325C7.69905 22.925 7.69905 26.125 7.69905 26.125" stroke="white" stroke-width="0.74" stroke-linecap="round" stroke-linejoin="round"/>
<path d="M12.1116 18.75C12.1656 19.5282 12.1656 20.3093 12.1116 21.0875V23.1375C12.1116 23.325 12.1741 23.5125 12.0116 23.6375C11.8521 23.7453 11.685 23.8414 11.5116 23.925L10.4116 24.55C9.92405 24.825 7.78655 26.175 7.67405 26.1875C7.32523 26.0746 6.98988 25.9237 6.67405 25.7375L5.59905 25.2L4.04905 24.4125C3.84824 24.3343 3.65901 24.2292 3.48655 24.1C3.40843 23.9545 3.37373 23.7897 3.38655 23.625C3.38655 23.35 3.38655 21.925 3.38655 21.5C3.34248 20.7548 3.34248 20.0077 3.38655 19.2625C3.38655 19.05 4.03655 18.775 4.34905 18.5875L5.51155 17.8875C6.25661 17.3655 7.06792 16.9451 7.92405 16.6375C8.66268 16.8547 9.37207 17.1611 10.0366 17.55C10.7856 17.8414 11.4854 18.2461 12.1116 18.75Z" stroke="white" stroke-width="0.99" stroke-linecap="round" stroke-linejoin="round"/>
<path d="M7.76146 12.7875C7.76146 13.475 7.76146 14.8375 7.76146 14.8375" stroke="white" stroke-width="0.74" stroke-linecap="round" stroke-linejoin="round"/>
<path d="M12.0741 18.8875C13.0366 18.8875 14.9615 18.8875 14.9615 18.8875" stroke="white" stroke-width="0.74" stroke-linecap="round" stroke-linejoin="round"/>
<path d="M17.9115 10.4625L14.8365 10.3875" stroke="white" stroke-width="0.74" stroke-linecap="round" stroke-linejoin="round"/>
<path d="M22.349 16.7625C22.424 15.9625 22.349 14.2625 22.349 14.2625" stroke="white" stroke-width="0.74" stroke-linecap="round" stroke-linejoin="round"/>
</svg>
