<svg width="30" height="30" viewBox="0 0 30 30" fill="none" xmlns="http://www.w3.org/2000/svg">
<g clip-path="url(#clip0_740_10822)">
<path d="M22.5 16.25H21.65L19.15 18.75H21.5375L23.75 21.25H6.25L8.475 18.75H11.0375L8.5375 16.25H7.5L3.75 20V25C3.75 26.375 4.8625 27.5 6.2375 27.5H23.75C25.125 27.5 26.25 26.3875 26.25 25V20L22.5 16.25ZM21.25 9.93749L15.0625 16.125L10.6375 11.7L16.825 5.51249L21.25 9.93749ZM15.95 2.86249L7.9875 10.825C7.5 11.3125 7.5 12.1 7.9875 12.5875L14.175 18.775C14.6625 19.2625 15.45 19.2625 15.9375 18.775L23.8875 10.825C24.375 10.3375 24.375 9.54999 23.8875 9.06249L17.7 2.87499C17.225 2.37499 16.4375 2.37499 15.95 2.86249Z" fill="white"/>
</g>
<defs>
<clipPath id="clip0_740_10822">
<rect width="30" height="30" fill="white"/>
</clipPath>
</defs>
</svg>
