<svg width="25" height="25" viewBox="0 0 25 25" fill="none" xmlns="http://www.w3.org/2000/svg">
<g clip-path="url(#clip0_786_6852)">
<path d="M18.7503 12.0835V20.8335C18.7503 21.5239 18.1907 22.0835 17.5003 22.0835H1.66699C0.976636 22.0835 0.416992 21.5239 0.416992 20.8335V3.3335C0.416992 2.64314 0.976636 2.0835 1.66699 2.0835H14.6712C12.9764 3.7411 12.4538 6.2597 13.3492 8.45472C14.2446 10.6497 16.3797 12.0842 18.7503 12.0835Z" fill="#CFEDFF"/>
<path d="M12.9169 6.25016C12.9145 4.68129 13.5473 3.17825 14.6711 2.0835H13.4211C11.7263 3.7411 11.2037 6.2597 12.0991 8.45472C12.9945 10.6497 15.1296 12.0842 17.5002 12.0835V20.8335C17.5002 21.5239 16.9406 22.0835 16.2502 22.0835H17.5002C18.1906 22.0835 18.7502 21.5239 18.7502 20.8335V12.0835C15.5286 12.0835 12.9169 9.47182 12.9169 6.25016Z" fill="#F4F7FF"/>
<path d="M21.2504 11.521V23.3335C21.2504 24.0239 20.6907 24.5835 20.0004 24.5835H4.16703C3.83473 24.5861 3.51528 24.4552 3.2803 24.2202C3.04532 23.9852 2.91445 23.6658 2.91703 23.3335V22.0835H17.5004C18.1907 22.0835 18.7504 21.5239 18.7504 20.8335V12.0835C19.6153 12.0852 20.4695 11.893 21.2504 11.521Z" fill="#F4F7FF"/>
<path d="M8.33301 12.9419H10.833V17.9419H8.33301V12.9419Z" fill="#F4F7FF"/>
<path d="M12.917 12.9419H15.417V17.9419H12.917V12.9419Z" fill="#F4F7FF"/>
<path d="M3.75 12.9419H6.25V17.9419H3.75V12.9419Z" fill="#F4F7FF"/>
<path d="M16.6875 11.2084L16.6708 12.5292C16.6704 12.6392 16.6262 12.7445 16.5481 12.8219C16.4699 12.8992 16.3642 12.9424 16.2542 12.9417H2.91668C2.68656 12.9417 2.50001 12.7551 2.50001 12.525V11.4459C2.49892 11.2919 2.58421 11.1502 2.72084 11.0792L9.38751 7.55002C9.50955 7.48333 9.65714 7.48333 9.77918 7.55002L16.6875 11.2084Z" fill="#CFEDFF"/>
<path d="M15.4382 11.2085L15.4215 12.5302C15.4186 12.7582 15.2329 12.9414 15.0049 12.9414H16.2549C16.4829 12.9414 16.6686 12.7582 16.6715 12.5302L16.6882 11.2085" fill="#F4F7FF"/>
<path d="M6.25 12.9419H8.33333V17.9419H6.25V12.9419Z" fill="white"/>
<path d="M10.833 12.9419H12.9163V17.9419H10.833V12.9419Z" fill="white"/>
<path d="M17.083 19.1919V19.6086C17.083 19.8387 16.8965 20.0252 16.6663 20.0252H2.49967C2.26956 20.0252 2.08301 19.8387 2.08301 19.6086V19.1919C2.08301 18.5015 2.64265 17.9419 3.33301 17.9419H15.833C16.5234 17.9419 17.083 18.5015 17.083 19.1919Z" fill="#CFEDFF"/>
<path d="M15.833 17.9419H14.583C15.2734 17.9419 15.833 18.5015 15.833 19.1919V19.6086C15.833 19.8387 15.6465 20.0252 15.4163 20.0252H16.6663C16.8965 20.0252 17.083 19.8387 17.083 19.6086V19.1919C17.083 18.5015 16.5234 17.9419 15.833 17.9419Z" fill="#F4F7FF"/>
<path d="M24.5835 6.24984C24.5822 9.46947 21.9715 12.0786 18.7519 12.0782C15.5322 12.0777 12.9223 9.4678 12.9219 6.24817C12.9214 3.02854 15.5306 0.417885 18.7502 0.416504C21.9713 0.417883 24.5822 3.02875 24.5835 6.24984Z" fill="#CFEDFF"/>
<path d="M18.75 0.416504C18.5412 0.417003 18.3326 0.428547 18.125 0.451087C20.7208 0.731314 22.8143 2.7023 23.2503 5.27653C23.6864 7.85077 22.3587 10.4012 20 11.5207C19.4095 11.8018 18.7754 11.9802 18.125 12.0482C18.3326 12.0709 18.5412 12.0826 18.75 12.0832C21.9717 12.0832 24.5833 9.4715 24.5833 6.24984C24.5833 3.02818 21.9717 0.416504 18.75 0.416504Z" fill="#F4F7FF"/>
<path d="M4.16703 24.5835H5.41703C5.08473 24.5861 4.76528 24.4552 4.5303 24.2202C4.29532 23.9852 4.16445 23.6658 4.16703 23.3335V22.0835H2.91703V23.3335C2.91445 23.6658 3.04532 23.9852 3.2803 24.2202C3.51528 24.4552 3.83473 24.5861 4.16703 24.5835Z" fill="#F4F7FF"/>
<path d="M1.66699 22.0835H2.91699C2.22664 22.0835 1.66699 21.5239 1.66699 20.8335V3.3335C1.66699 2.64314 2.22664 2.0835 2.91699 2.0835H1.66699C0.976636 2.0835 0.416992 2.64314 0.416992 3.3335V20.8335C0.416992 21.5239 0.976636 22.0835 1.66699 22.0835Z" fill="#F4F7FF"/>
<path d="M0 3.3335H0.833333V6.66683H0V3.3335Z" fill="#F4F7FF"/>
<path d="M0.424615 5.41683C0.194496 5.41798 0.00701529 5.23236 0.0058647 5.00225C0.0047141 4.77213 0.190329 4.58465 0.420448 4.5835H0.424615C0.654733 4.5835 0.841281 4.77004 0.841281 5.00016C0.841281 5.23028 0.654733 5.41683 0.424615 5.41683Z" fill="#024C7B"/>
<path d="M12.9167 2.08317C12.9167 1.85305 12.7301 1.6665 12.5 1.6665H1.66667C0.746192 1.6665 0 2.4127 0 3.33317C0 3.48203 0.0794162 3.61958 0.208333 3.69401C0.33725 3.76844 0.496083 3.76844 0.625 3.69401C0.753917 3.61958 0.833333 3.48203 0.833333 3.33317C0.833333 2.87293 1.20643 2.49984 1.66667 2.49984H12.5C12.7301 2.49984 12.9167 2.31329 12.9167 2.08317Z" fill="#024C7B"/>
<path d="M1.66667 22.5H2.5V23.3283C2.49346 23.7683 2.66472 24.1922 2.975 24.5042C3.28926 24.8231 3.71889 25.0019 4.16667 25H20C20.9205 25 21.6667 24.2538 21.6667 23.3333V13.3333C21.6667 13.1032 21.4801 12.9167 21.25 12.9167C21.0199 12.9167 20.8333 13.1032 20.8333 13.3333V23.3333C20.8333 23.7936 20.4602 24.1667 20 24.1667H4.16667C3.94144 24.1674 3.72543 24.0773 3.5675 23.9167C3.41394 23.7618 3.32949 23.5514 3.33333 23.3333V22.5H17.5C18.4205 22.5 19.1667 21.7538 19.1667 20.8333V13.75C19.1667 13.5199 18.9801 13.3333 18.75 13.3333C18.5199 13.3333 18.3333 13.5199 18.3333 13.75V20.8333C18.3333 21.2936 17.9602 21.6667 17.5 21.6667H1.66667C1.20643 21.6667 0.833333 21.2936 0.833333 20.8333V6.66667C0.833333 6.43655 0.646785 6.25 0.416667 6.25C0.186548 6.25 0 6.43655 0 6.66667V20.8333C0 21.7538 0.746192 22.5 1.66667 22.5Z" fill="#024C7B"/>
<path d="M11.9812 8.71594C12.0329 8.61826 12.0437 8.50402 12.0112 8.39836C11.9787 8.29271 11.9055 8.2043 11.8078 8.15261L9.98074 7.18552C9.73586 7.05083 9.4394 7.04942 9.19324 7.18177L2.53033 10.7084C2.25453 10.8506 2.08192 11.1356 2.08366 11.4459V12.5251C2.08366 12.9853 2.45675 13.3584 2.91699 13.3584H3.33366V17.5251C2.41318 17.5251 1.66699 18.2713 1.66699 19.1918V19.6084C1.66699 20.0687 2.04009 20.4418 2.50033 20.4418H16.667C17.1272 20.4418 17.5003 20.0687 17.5003 19.6084V19.1918C17.5003 18.2713 16.7541 17.5251 15.8337 17.5251V12.9418C15.8337 12.7117 15.6471 12.5251 15.417 12.5251H12.917H12.9107H10.8399H10.8337H8.33366H8.32741H6.25658H6.25033H3.75033H3.74408H2.91699V11.4476L9.58366 7.91677L11.417 8.88761C11.5146 8.93974 11.6288 8.95094 11.7347 8.91874C11.8405 8.88654 11.9292 8.81358 11.9812 8.71594ZM4.16699 13.3584H5.83366V17.5251H4.16699V13.3584ZM11.2503 17.5251V13.3584H12.5003V17.5251H11.2503ZM10.417 13.3584V17.5251H8.75033V13.3584H10.417ZM7.91699 17.5251H6.66699V13.3584H7.91699V17.5251ZM16.667 19.1918V19.6084H2.50033V19.1918C2.50033 18.7315 2.87342 18.3584 3.33366 18.3584H15.8337C16.2934 18.3584 16.6663 18.7308 16.667 19.1905V19.1918ZM13.3337 17.5251V13.3584H15.0003V17.5251H13.3337Z" fill="#024C7B"/>
<path d="M8.33366 10.4404C8.10354 10.4404 7.91699 10.627 7.91699 10.8571C7.91699 11.0872 8.10354 11.2738 8.33366 11.2738H10.8337C11.0638 11.2738 11.2503 11.0872 11.2503 10.8571C11.2503 10.627 11.0638 10.4404 10.8337 10.4404H8.33366Z" fill="#024C7B"/>
<path d="M18.75 0C15.2982 0 12.5 2.79822 12.5 6.25C12.5 9.70178 15.2982 12.5 18.75 12.5C22.2018 12.5 25 9.70178 25 6.25C24.9961 2.79984 22.2002 0.00390355 18.75 0ZM18.75 11.6667C15.7585 11.6667 13.3333 9.24154 13.3333 6.25C13.3333 3.25846 15.7585 0.833333 18.75 0.833333C21.7415 0.833333 24.1667 3.25846 24.1667 6.25C24.1632 9.24011 21.7401 11.6632 18.75 11.6667Z" fill="#024C7B"/>
<path d="M22.2459 4.25337L17.1209 8.19671L15.713 6.78879C15.5495 6.63088 15.2896 6.63314 15.1289 6.79387C14.9682 6.95459 14.9659 7.21447 15.1238 7.37796L16.7905 9.04462C16.9385 9.19235 17.173 9.2075 17.3388 9.08004L22.7555 4.91337C22.8808 4.82534 22.9477 4.67565 22.9297 4.52357C22.9118 4.37148 22.8118 4.2415 22.6695 4.18508C22.5271 4.12865 22.3652 4.15488 22.248 4.25337H22.2459Z" fill="#024C7B"/>
<path d="M2.91667 4.99984H7.5C7.73012 4.99984 7.91667 4.81329 7.91667 4.58317C7.91667 4.35305 7.73012 4.1665 7.5 4.1665H2.91667C2.68655 4.1665 2.5 4.35305 2.5 4.58317C2.5 4.81329 2.68655 4.99984 2.91667 4.99984Z" fill="#024C7B"/>
<path d="M2.91667 6.66683H6.25C6.48012 6.66683 6.66667 6.48028 6.66667 6.25016C6.66667 6.02004 6.48012 5.8335 6.25 5.8335H2.91667C2.68655 5.8335 2.5 6.02004 2.5 6.25016C2.5 6.48028 2.68655 6.66683 2.91667 6.66683Z" fill="#024C7B"/>
</g>
<defs>
<clipPath id="clip0_786_6852">
<rect width="25" height="25" fill="white"/>
</clipPath>
</defs>
</svg>
