<svg width="128" height="128" viewBox="0 0 128 128" fill="none" xmlns="http://www.w3.org/2000/svg">
<path d="M64 24C69.5228 24 74 19.5228 74 14C74 8.47715 69.5228 4 64 4C58.4772 4 54 8.47715 54 14C54 19.5228 58.4772 24 64 24Z" fill="#808080"/>
<path d="M108 58C113.523 58 118 53.5228 118 48C118 42.4772 113.523 38 108 38C102.477 38 98 42.4772 98 48C98 53.5228 102.477 58 108 58Z" fill="#808080"/>
<path d="M118 92C123.523 92 128 87.5228 128 82C128 76.4772 123.523 72 118 72C112.477 72 108 76.4772 108 82C108 87.5228 112.477 92 118 92Z" fill="#808080"/>
<path d="M20 58C25.5228 58 30 53.5228 30 48C30 42.4772 25.5228 38 20 38C14.4772 38 10 42.4772 10 48C10 53.5228 14.4772 58 20 58Z" fill="#808080"/>
<path d="M10 92C15.5228 92 20 87.5228 20 82C20 76.4772 15.5228 72 10 72C4.47715 72 0 76.4772 0 82C0 87.5228 4.47715 92 10 92Z" fill="#808080"/>
<path d="M64 66C72.8366 66 80 58.8366 80 50C80 41.1634 72.8366 34 64 34C55.1634 34 48 41.1634 48 50C48 58.8366 55.1634 66 64 66Z" fill="#808080"/>
<path d="M64 72C46.327 72 32 86.327 32 104V108V112H96V104C96 86.327 81.673 72 64 72Z" fill="#808080"/>
</svg>
