<svg width="30" height="30" viewBox="0 0 30 30" fill="none" xmlns="http://www.w3.org/2000/svg">
<path fill-rule="evenodd" clip-rule="evenodd" d="M14.3066 3.95993C14.7265 3.68002 15.2735 3.68002 15.6934 3.95993L23.1934 8.95993C23.7678 9.34287 23.923 10.119 23.54 10.6934C23.2994 11.0543 22.9035 11.2498 22.5 11.2501C22.2815 11.2503 22.0606 11.1933 21.861 11.0744C21.8428 11.0635 21.8245 11.052 21.8066 11.0401L20 9.83566V20.5806L19.7098 20.2902C18.4894 19.0699 16.5106 19.0699 15.2902 20.2902C14.0699 21.5106 14.0699 23.4894 15.2902 24.7097L16.8306 26.25H10V9.83566L8.19335 11.0401C7.61895 11.423 6.84286 11.2678 6.45991 10.6934C6.07698 10.119 6.2322 9.34287 6.8066 8.95993L14.3066 3.95993ZM13.75 13.75C13.0596 13.75 12.5 14.3096 12.5 15C12.5 15.6904 13.0596 16.25 13.75 16.25H16.25C16.9404 16.25 17.5 15.6904 17.5 15C17.5 14.3096 16.9404 13.75 16.25 13.75H13.75ZM12.5 11.25C12.5 10.5596 13.0596 10 13.75 10H16.25C16.9404 10 17.5 10.5596 17.5 11.25C17.5 11.9403 16.9404 12.5 16.25 12.5H13.75C13.0596 12.5 12.5 11.9403 12.5 11.25Z" fill="white"/>
<path d="M26.25 17.1352V15.1564C26.25 14.5964 25.8775 14.1047 25.3384 13.953L22.5 13.1548V18.0808L22.7903 17.7904C23.7257 16.855 25.1065 16.6367 26.25 17.1352ZM7.5 13.1548L4.66156 13.953C4.12246 14.1047 3.75 14.5964 3.75 15.1564V25.0002C3.75 25.6905 4.30965 26.2502 5 26.2502H7.5V13.1548Z" fill="white"/>
<path fill-rule="evenodd" clip-rule="evenodd" d="M25.8839 19.1161C26.372 19.6042 26.372 20.3957 25.8839 20.8838L20.8839 25.8838C20.3957 26.372 19.6042 26.372 19.1161 25.8838L16.6161 23.3838C16.128 22.8957 16.128 22.1042 16.6161 21.6161C17.1042 21.128 17.8957 21.128 18.3839 21.6161L20 23.2322L24.1161 19.1161C24.6042 18.628 25.3957 18.628 25.8839 19.1161Z" fill="white"/>
</svg>
