<svg width="18" height="18" viewBox="0 0 18 18" fill="none" xmlns="http://www.w3.org/2000/svg">
<path d="M6.75 13.75V16.75H11.25V13.75C11.25 12.5073 10.2426 11.5 9 11.5C7.75736 11.5 6.75 12.5073 6.75 13.75Z" stroke="black" stroke-width="2" stroke-linecap="round" stroke-linejoin="round"/>
<path d="M8.25 16.75H9.75C11.8502 16.75 12.9003 16.75 13.7025 16.3412C14.4081 15.9817 14.9817 15.408 15.3413 14.7024C15.75 13.9003 15.75 12.8502 15.75 10.75V10.2111C15.75 9.03705 15.75 8.45004 15.5882 7.9172C15.4449 7.44549 15.2101 7.00666 14.897 6.6258C14.5435 6.1956 14.055 5.86999 13.0782 5.21876L10.3313 3.38748C9.85014 3.06672 9.60958 2.90634 9.34956 2.84403C9.11977 2.78897 8.88023 2.78897 8.65044 2.84403C8.39042 2.90634 8.14986 3.06672 7.66872 3.38748L4.9218 5.21876C3.94496 5.86999 3.45654 6.1956 3.10295 6.6258C2.78993 7.00666 2.55507 7.44549 2.41182 7.9172C2.25 8.45004 2.25 9.03705 2.25 10.2111L2.25 10.75C2.25 12.8502 2.25 13.9003 2.65873 14.7024C3.01825 15.408 3.59193 15.9817 4.29754 16.3412C5.0997 16.75 6.1498 16.75 8.25 16.75Z" stroke="black" stroke-width="2" stroke-linecap="round" stroke-linejoin="round"/>
</svg>
