<svg width="18" height="18" viewBox="0 0 18 18" fill="none" xmlns="http://www.w3.org/2000/svg">
<g clip-path="url(#clip0_960_3158)">
<path d="M6.75 8.25C7.34334 8.25 7.92336 8.07405 8.41671 7.74441C8.91006 7.41477 9.29458 6.94623 9.52164 6.39805C9.7487 5.84987 9.80811 5.24667 9.69236 4.66473C9.5766 4.08279 9.29088 3.54824 8.87132 3.12868C8.45176 2.70912 7.91721 2.4234 7.33527 2.30765C6.75333 2.19189 6.15013 2.2513 5.60195 2.47836C5.05377 2.70543 4.58524 3.08994 4.25559 3.58329C3.92595 4.07664 3.75 4.65666 3.75 5.25C3.75 6.04565 4.06607 6.80871 4.62868 7.37132C5.19129 7.93393 5.95435 8.25 6.75 8.25ZM6.75 3.75C7.04667 3.75 7.33668 3.83797 7.58336 4.0028C7.83003 4.16762 8.02229 4.40189 8.13582 4.67598C8.24935 4.95007 8.27906 5.25167 8.22118 5.54264C8.1633 5.83361 8.02044 6.10088 7.81066 6.31066C7.60088 6.52044 7.33361 6.6633 7.04264 6.72118C6.75166 6.77906 6.45006 6.74935 6.17598 6.63582C5.90189 6.52229 5.66762 6.33003 5.5028 6.08336C5.33797 5.83668 5.25 5.54667 5.25 5.25C5.25 4.85218 5.40804 4.47065 5.68934 4.18934C5.97064 3.90804 6.35218 3.75 6.75 3.75Z" fill="black"/>
<path d="M12.75 9.75C13.195 9.75 13.63 9.61804 14 9.37081C14.37 9.12357 14.6584 8.77217 14.8287 8.36104C14.999 7.9499 15.0436 7.49751 14.9568 7.06105C14.87 6.62459 14.6557 6.22368 14.341 5.90901C14.0263 5.59434 13.6254 5.38005 13.189 5.29323C12.7525 5.20642 12.3001 5.25097 11.889 5.42127C11.4778 5.59157 11.1264 5.87996 10.8792 6.24997C10.632 6.61998 10.5 7.05499 10.5 7.5C10.5 8.09674 10.7371 8.66903 11.159 9.09099C11.581 9.51295 12.1533 9.75 12.75 9.75ZM12.75 6.75C12.8983 6.75 13.0433 6.79399 13.1667 6.8764C13.29 6.95881 13.3861 7.07594 13.4429 7.21299C13.4997 7.35003 13.5145 7.50083 13.4856 7.64632C13.4567 7.7918 13.3852 7.92544 13.2803 8.03033C13.1754 8.13522 13.0418 8.20665 12.8963 8.23559C12.7508 8.26453 12.6 8.24968 12.463 8.19291C12.3259 8.13615 12.2088 8.04002 12.1264 7.91668C12.044 7.79334 12 7.64834 12 7.5C12 7.30109 12.079 7.11032 12.2197 6.96967C12.3603 6.82902 12.5511 6.75 12.75 6.75Z" fill="black"/>
<path d="M12.75 10.5C11.9189 10.5009 11.1116 10.7779 10.455 11.2875C9.72038 10.5558 8.78554 10.058 7.76837 9.85683C6.75119 9.6557 5.69724 9.76028 4.73942 10.1574C3.7816 10.5544 2.96281 11.2263 2.38631 12.0881C1.8098 12.9499 1.5014 13.9631 1.5 15C1.5 15.1989 1.57902 15.3897 1.71967 15.5303C1.86032 15.671 2.05109 15.75 2.25 15.75C2.44891 15.75 2.63968 15.671 2.78033 15.5303C2.92098 15.3897 3 15.1989 3 15C3 14.0054 3.39509 13.0516 4.09835 12.3484C4.80161 11.6451 5.75544 11.25 6.75 11.25C7.74456 11.25 8.69839 11.6451 9.40165 12.3484C10.1049 13.0516 10.5 14.0054 10.5 15C10.5 15.1989 10.579 15.3897 10.7197 15.5303C10.8603 15.671 11.0511 15.75 11.25 15.75C11.4489 15.75 11.6397 15.671 11.7803 15.5303C11.921 15.3897 12 15.1989 12 15C12.0018 14.1213 11.7798 13.2567 11.355 12.4875C11.6864 12.2256 12.0849 12.0623 12.5048 12.0163C12.9248 11.9702 13.3492 12.0433 13.7295 12.2272C14.1098 12.4111 14.4306 12.6984 14.6553 13.0561C14.88 13.4138 14.9995 13.8276 15 14.25C15 14.4489 15.079 14.6397 15.2197 14.7803C15.3603 14.921 15.5511 15 15.75 15C15.9489 15 16.1397 14.921 16.2803 14.7803C16.421 14.6397 16.5 14.4489 16.5 14.25C16.5 13.2554 16.1049 12.3016 15.4017 11.5984C14.6984 10.8951 13.7446 10.5 12.75 10.5Z" fill="black"/>
</g>
<defs>
<clipPath id="clip0_960_3158">
<rect width="18" height="18" fill="white"/>
</clipPath>
</defs>
</svg>
