<svg width="23" height="25" viewBox="0 0 23 25" fill="none" xmlns="http://www.w3.org/2000/svg">
<path d="M18.75 13.7516H17.9L15.4 16.2516H17.7875L20 18.7516H2.5L4.725 16.2516H7.2875L4.7875 13.7516H3.75L0 17.5016V22.5016C0 23.8766 1.1125 25.0016 2.4875 25.0016H20C21.375 25.0016 22.5 23.8891 22.5 22.5016V17.5016L18.75 13.7516ZM17.5 7.43908L11.3125 13.6266L6.8875 9.20158L13.075 3.01408L17.5 7.43908ZM12.2 0.364077L4.2375 8.32658C3.75 8.81408 3.75 9.60158 4.2375 10.0891L10.425 16.2766C10.9125 16.7641 11.7 16.7641 12.1875 16.2766L20.1375 8.32658C20.625 7.83908 20.625 7.05158 20.1375 6.56408L13.95 0.376577C13.475 -0.123423 12.6875 -0.123423 12.2 0.364077Z" fill="white"/>
</svg>
