<svg width="35" height="40" viewBox="0 0 35 40" fill="none" xmlns="http://www.w3.org/2000/svg">
<path d="M27.8174 2.97948C26.5052 1.44862 19.141 -2.24543 15.1316 1.90993C11.1222 6.0652 15.3819 9.00094 16.9131 9.70753C18.444 10.4141 22.8181 11.4936 24.4041 8.72344C24.8272 9.80741 24.5417 18.8239 22.0416 21.1163C20.7748 19.9085 18.9461 19.1502 16.9132 19.1502C15.2439 19.1502 13.7129 19.6615 12.5171 20.5129C10.9385 17.9792 7.95191 16.2685 4.52442 16.2685C2.88105 16.2685 1.33967 16.6635 0.00474789 17.3522V18.238C0.0036457 18.2378 0 18.2369 0 18.2369V39.9978C0 39.9978 6.34245 40.3259 6.8498 32.9994C6.84963 32.9989 6.84937 32.9985 6.84937 32.9981C8.39228 35.2387 13.3082 36.944 16.3375 36.8435C21.0957 36.6857 27.4182 36.4771 32.7742 31.3426C33.2691 30.8501 33.6661 30.2685 33.9358 29.6249C33.9358 29.6248 33.9358 29.6248 33.9358 29.6246C36.4137 24.47 29.1296 4.51034 27.8174 2.97948Z" fill="white"/>
</svg>
