<svg width="40" height="40" viewBox="0 0 40 40" fill="none" xmlns="http://www.w3.org/2000/svg">
<g clip-path="url(#clip0_2186_2285)">
<path d="M24.9783 9.86564C25.6124 10.5764 26.0605 11.4543 26.3104 12.4749C26.5476 13.4436 26.6006 14.5211 26.4682 15.6779C26.4191 16.1057 26.3466 16.5903 26.2408 17.1028C27.0599 17.896 28.133 18.3995 29.5281 18.3995C33.3987 18.3991 34.7915 14.5236 35.1559 11.3402C35.6051 7.41837 33.7508 4.4668 29.5281 4.4668C26.2145 4.4668 24.3596 6.2851 23.9315 8.96341C24.3188 9.21969 24.67 9.51989 24.9783 9.86564Z" fill="white"/>
<path d="M39.9983 27.6279C39.9562 26.3927 39.8113 25.1516 39.5956 23.9354C39.3347 22.4623 39.0022 20.3024 37.716 19.3422C36.9722 18.7873 36.009 18.6051 35.1576 18.2705C34.743 18.1076 34.3717 17.9458 34.0233 17.7617C32.8472 19.0515 31.3136 19.7261 29.5278 19.7262C28.1381 19.7262 26.9021 19.3157 25.8675 18.5264C25.6294 19.2631 25.3106 20.005 24.8843 20.6828C25.2587 20.9083 25.6636 21.0883 26.1556 21.2817C26.3734 21.3673 26.6125 21.4455 26.8657 21.5281C27.5501 21.7518 28.3257 22.0053 29.0221 22.5252C30.6776 23.761 31.0851 26.0766 31.3827 27.7675L31.4148 27.95C31.5687 28.817 31.6817 29.6689 31.7544 30.4965C33.0757 30.3611 34.3902 30.1298 35.6791 29.8576C36.721 29.6377 37.7558 29.3693 38.7581 29.0078C39.5587 28.7189 40.0312 28.5847 39.9983 27.6279Z" fill="white"/>
<path d="M10.4716 18.3995C11.8667 18.3997 12.9397 17.8961 13.7589 17.1029C13.6531 16.5904 13.5806 16.1058 13.5315 15.6779C13.3991 14.5213 13.4522 13.4437 13.6893 12.4749C13.9391 11.4544 14.3873 10.5765 15.0214 9.8657C15.3297 9.51989 15.6809 9.21969 16.068 8.96341C15.64 6.2851 13.785 4.4668 10.4714 4.4668C6.24879 4.4668 4.39448 7.41844 4.84356 11.3402C5.20827 14.5238 6.60102 18.3993 10.4716 18.3995Z" fill="white"/>
<path d="M10.9776 22.5252C11.674 22.0053 12.4498 21.7518 13.1341 21.5281C13.3873 21.4455 13.6263 21.3673 13.8441 21.2817C14.3362 21.0884 14.7412 20.9084 15.1155 20.6828C14.6893 20.0051 14.3704 19.2631 14.1322 18.5264C13.0977 19.3157 11.8616 19.7262 10.472 19.7262C8.68628 19.7262 7.15255 19.0515 5.97647 17.7617C5.62817 17.9458 5.25673 18.1075 4.84222 18.2705C3.99084 18.6051 3.02764 18.7873 2.28384 19.3422C0.997695 20.3024 0.665079 22.4622 0.404163 23.9354C0.188476 25.1515 0.0436391 26.3926 0.00148213 27.6279C-0.0313284 28.5848 0.441091 28.7189 1.24162 29.0078C2.24384 29.3693 3.27888 29.6376 4.32065 29.8576C5.60954 30.1299 6.92412 30.3612 8.2453 30.4965C8.31798 29.6689 8.43099 28.8172 8.58497 27.95L8.617 27.7675C8.91465 26.0766 9.3221 23.761 10.9776 22.5252Z" fill="white"/>
<path d="M30.742 28.0654L30.7098 27.882C30.4314 26.3005 30.0502 24.1347 28.6058 23.0564C27.9965 22.6017 27.3069 22.3764 26.6399 22.1584C26.3772 22.0725 26.1293 21.9914 25.893 21.8986C25.5486 21.7633 25.2384 21.6308 24.9476 21.4844C23.7265 23.1139 22.0339 23.9719 20.0206 23.9721C18.0079 23.9721 16.3156 23.1141 15.0944 21.4844C14.8036 21.631 14.4934 21.7634 14.1488 21.8988C13.9129 21.9914 13.6648 22.0725 13.4022 22.1584C12.7351 22.3763 12.0452 22.6018 11.4362 23.0564C9.99132 24.1348 9.61034 26.3012 9.3321 27.883L9.29988 28.0656C9.06739 29.3785 8.92863 30.6521 8.88759 31.8509C8.83942 33.2574 9.71243 33.5709 10.4826 33.8476L10.5655 33.8775C11.4916 34.2116 12.5277 34.4979 13.7326 34.7525C16.1932 35.2719 18.19 35.5198 20.0162 35.5328H20.0209H20.0256C21.8521 35.5198 23.8488 35.2719 26.309 34.7525C27.5141 34.498 28.5501 34.2117 29.4758 33.8776L29.5587 33.8477C30.329 33.5711 31.2023 33.2576 31.1541 31.8508C31.1132 30.6488 30.9743 29.3753 30.742 28.0654Z" fill="white"/>
<path d="M14.4448 15.883C14.8093 19.0666 16.2019 22.9424 20.0725 22.9422C23.9431 22.942 25.3358 19.0666 25.7003 15.883C26.1494 11.9613 24.2949 9.00977 20.0725 9.00977C15.8507 9.00963 13.995 11.961 14.4448 15.883Z" fill="white"/>
</g>
<defs>
<clipPath id="clip0_2186_2285">
<rect width="40" height="40" fill="white"/>
</clipPath>
</defs>
</svg>
