<svg width="40" height="40" viewBox="0 0 40 40" fill="none" xmlns="http://www.w3.org/2000/svg">
<path d="M31.6666 1.66667C31.6666 0.746192 32.4128 0 33.3333 0C34.2538 0 35 0.746192 35 1.66667V2.64303L37.1181 0.524823C37.769 -0.126051 38.8243 -0.126049 39.4751 0.524825C40.1261 1.1757 40.1261 2.23097 39.4751 2.88185L37.357 5H38.3333C39.2538 5 40 5.7462 40 6.66667C40 7.58713 39.2538 8.33333 38.3333 8.33333H34.0236L21.1695 21.1875C20.5186 21.8383 19.4633 21.8383 18.8125 21.1875C18.1616 20.5367 18.1616 19.4813 18.8125 18.8305L31.6666 5.97637V1.66667Z" fill="white"/>
<path d="M28.9873 6.31546C29.7233 5.57949 29.6128 4.35158 28.697 3.85713C26.1091 2.46001 23.1471 1.66699 20 1.66699C9.87474 1.66699 1.66663 9.87511 1.66663 20.0003C1.66663 30.1255 9.87474 38.3337 20 38.3337C30.1251 38.3337 38.3333 30.1255 38.3333 20.0003C38.3333 16.8593 37.5435 13.9029 36.1515 11.3187C35.6576 10.4018 34.429 10.2907 33.6925 11.0271L33.6426 11.077C33.0923 11.6272 33.0053 12.4809 33.36 13.1736C34.4085 15.2213 35 17.5418 35 20.0003C35 28.2847 28.2843 35.0003 20 35.0003C11.7157 35.0003 4.99996 28.2847 4.99996 20.0003C4.99996 11.7161 11.7157 5.00033 20 5.00033C22.4636 5.00033 24.7886 5.59429 26.8395 6.64684C27.5325 7.00248 28.387 6.91581 28.9378 6.36506L28.9873 6.31546Z" fill="white"/>
<path d="M23.9832 11.319C24.7709 10.5314 24.5727 9.20512 23.5104 8.87036C22.4025 8.52126 21.2232 8.33301 20 8.33301C13.5567 8.33301 8.33337 13.5564 8.33337 19.9997C8.33337 26.443 13.5567 31.6663 20 31.6663C26.4434 31.6663 31.6667 26.443 31.6667 19.9997C31.6667 18.7833 31.4805 17.6103 31.1352 16.5078C30.8019 15.444 29.4744 15.2446 28.6862 16.0329L28.5324 16.1867C28.0637 16.6553 27.9325 17.3537 28.0912 17.997C28.2494 18.6385 28.3334 19.3093 28.3334 19.9997C28.3334 24.602 24.6024 28.333 20 28.333C15.3977 28.333 11.6667 24.602 11.6667 19.9997C11.6667 15.3973 15.3977 11.6663 20 11.6663C20.6954 11.6663 21.3709 11.7515 22.0167 11.912C22.6609 12.0721 23.361 11.9413 23.8304 11.4719L23.9832 11.319Z" fill="white"/>
<path d="M18.4633 15.2522C19.1457 15.0246 19.489 15.8134 18.9803 16.3221L17.6378 17.6647C16.3376 18.9649 16.3376 21.0729 17.6378 22.3731C18.938 23.6732 21.046 23.6732 22.3462 22.3731L23.6718 21.0474C24.1815 20.5377 24.9703 20.8834 24.7382 21.5661C24.0683 23.5347 22.1892 24.9999 20 24.9999C17.2385 24.9999 15 22.7614 15 19.9999C15 17.7992 16.4805 15.9133 18.4633 15.2522Z" fill="white"/>
</svg>
