<svg width="40" height="40" viewBox="0 0 40 40" fill="none" xmlns="http://www.w3.org/2000/svg">
<path d="M38.5938 1.68953C37.426 2.34812 36.2839 3.06305 35.182 3.97289L35.7537 6.98437C36.869 7.31758 37.7799 7.44258 38.5938 7.45039V1.68953ZM30.8608 3.60453C29.6668 3.59789 28.3233 3.80734 26.6552 4.13844L26.638 4.1418L26.6208 4.14437C25.4669 4.31445 23.4338 5.08695 21.4282 7.18086L24.8868 8.10008C24.9627 7.98344 25.3505 7.39664 25.4243 7.27547C25.8246 7.51945 26.2249 7.76328 26.6252 8.00711C25.6506 9.60672 24.536 10.7849 23.1929 12.2666C23.027 12.6352 23.2692 12.9072 23.5335 13.0588C23.9413 13.2878 24.6351 13.3002 24.8177 13.223C26.6873 11.9912 28.0066 10.4162 29.1898 8.82687L29.617 8.90219C30.5155 9.06086 31.685 8.98484 32.641 8.6793C33.508 8.40211 34.1466 7.94828 34.4115 7.45367L33.7922 4.1918C32.8513 3.78445 31.9141 3.61039 30.8607 3.60453H30.8608ZM17.8072 7.71266L15.5075 16.7741L16.2609 16.7973H24.318L24.3883 16.7809L24.9198 14.6644C24.2277 14.8128 23.4905 14.6474 22.8451 14.2851C22.4398 14.0575 22.062 13.7195 21.8591 13.2355C21.2499 11.6779 23.0979 10.3217 24.1031 9.11445L17.807 7.71266H17.8072ZM5.43453 15.7035L3.63766 19.2973H36.3623L34.5654 15.7035H26.109L25.8342 16.7973H27.5V18.2035H12.5V16.7973H14.0509L14.3284 15.7035H5.43461H5.43453ZM3.20312 20.7035V38.0473H36.7969V20.7035H3.20312ZM4.29688 21.7973H35.7031V36.9535H4.29688V21.7973ZM5.70312 23.2035V32.4409L8.39859 26.582L14.1298 29.0634L19.337 25.4821L22.2677 29.9566L26.1826 29.5976L28.6279 26.5248L34.2969 30.8306V23.2035H5.70312ZM18.9487 27.4559L11.8682 32.3254L13.9784 35.5473H21.4476L22.984 33.6168L18.9487 27.4559ZM9.10141 28.4188L5.82195 35.5473H12.2973L9.93852 31.9459L12.7623 30.0039L9.10141 28.4187V28.4188ZM28.8721 28.476L23.2448 35.5473H34.2245L34.2969 35.4562V32.5966L28.8721 28.476ZM24.9702 31.1209L23.1401 31.2887L23.9061 32.4581L24.9702 31.1209Z" fill="white"/>
</svg>
