<svg width="18" height="18" viewBox="0 0 18 18" fill="#ffffff" xmlns="http://www.w3.org/2000/svg">
<path d="M5.1 15.75H12.9C14.1601 15.75 14.7902 15.75 15.2715 15.5048C15.6948 15.289 16.039 14.9448 16.2548 14.5215C16.5 14.0402 16.5 13.4101 16.5 12.15V9.6C16.5 8.33988 16.5 7.70982 16.2548 7.22852C16.039 6.80516 15.6948 6.46095 15.2715 6.24524C14.7902 6 14.1601 6 12.9 6H5.1C3.83988 6 3.20982 6 2.72852 6.24524C2.30516 6.46095 1.96095 6.80516 1.74524 7.22852C1.5 7.70982 1.5 8.33988 1.5 9.6L1.5 12.15C1.5 13.4101 1.5 14.0402 1.74524 14.5215C1.96095 14.9448 2.30516 15.289 2.72852 15.5048C3.20982 15.75 3.83988 15.75 5.1 15.75Z" stroke="#131316" stroke-width="2" stroke-linecap="round" stroke-linejoin="round"/>
<path d="M4.5 15.75H13.5V6H4.5V15.75Z" stroke="#131316" stroke-width="2" stroke-linecap="round" stroke-linejoin="round"/>
<path d="M6 4.65V6H12V4.65C12 3.80992 12 3.38988 11.8365 3.06901C11.6927 2.78677 11.4632 2.5573 11.181 2.41349C10.8601 2.25 10.4401 2.25 9.6 2.25L8.4 2.25C7.55992 2.25 7.13988 2.25 6.81901 2.41349C6.53677 2.5573 6.3073 2.78677 6.16349 3.06901C6 3.38988 6 3.80992 6 4.65Z" stroke="#131316" stroke-width="2" stroke-linecap="round" stroke-linejoin="round"/>
</svg>
