<svg width="18" height="18" viewBox="0 0 18 18" fill="none" xmlns="http://www.w3.org/2000/svg">
<path d="M2.1669 3.52499C2.9919 3.92999 3.7869 4.32749 4.6119 4.75499" stroke="black" stroke-width="0.74" stroke-linecap="round" stroke-linejoin="round"/>
<path d="M4.61191 4.7475L7.22191 3.2475" stroke="black" stroke-width="0.74" stroke-linecap="round" stroke-linejoin="round"/>
<path d="M4.64935 4.73999C4.64935 5.69999 4.64935 7.61999 4.64935 7.61999" stroke="black" stroke-width="0.74" stroke-linecap="round" stroke-linejoin="round"/>
<path d="M7.2969 3.19499C7.32932 3.66193 7.32932 4.13055 7.2969 4.59749V5.82749C7.2969 5.93249 7.2969 6.05249 7.2294 6.12749C7.1619 6.20249 7.0269 6.23999 6.9294 6.29999C6.7044 6.41999 6.4869 6.54749 6.2694 6.67499C6.0519 6.80249 4.6944 7.64249 4.6269 7.65749C4.41612 7.59035 4.21456 7.49712 4.0269 7.37999L3.3819 7.06499C3.0744 6.90749 2.7669 6.74249 2.4519 6.59249C2.33282 6.54265 2.21963 6.47976 2.1144 6.40499C2.06699 6.31801 2.0486 6.21816 2.0619 6.11999C2.0619 5.95499 2.0619 5.09999 2.0619 4.84499C2.03918 4.39778 2.03918 3.9497 2.0619 3.50249C2.0619 3.37499 2.4594 3.20249 2.6394 3.09749L3.3369 2.67749C3.78303 2.3628 4.27003 2.11047 4.7844 1.92749C5.22757 2.05782 5.65321 2.24167 6.0519 2.47499C6.50131 2.64984 6.92121 2.89267 7.2969 3.19499Z" stroke="black" stroke-width="0.99" stroke-linecap="round" stroke-linejoin="round"/>
<path d="M10.6944 3.52499C11.5194 3.92999 12.3069 4.33499 13.1319 4.75499" stroke="black" stroke-width="0.74" stroke-linecap="round" stroke-linejoin="round"/>
<path d="M13.1319 4.7475L15.7494 3.2475" stroke="black" stroke-width="0.74" stroke-linecap="round" stroke-linejoin="round"/>
<path d="M13.1768 4.73999C13.1768 5.69999 13.1768 7.61999 13.1768 7.61999" stroke="black" stroke-width="0.74" stroke-linecap="round" stroke-linejoin="round"/>
<path d="M15.8244 3.19499C15.853 3.66205 15.853 4.13043 15.8244 4.59749V5.82749C15.8244 5.93249 15.8619 6.05249 15.7644 6.12749C15.6669 6.20249 15.5619 6.23999 15.4569 6.29999L14.7969 6.67499C14.5119 6.83999 13.2294 7.64249 13.1619 7.65749C12.9481 7.59194 12.7439 7.49865 12.5544 7.37999L11.9169 7.06499C11.6019 6.90749 11.2944 6.74249 10.9794 6.59249C10.862 6.53933 10.7491 6.47662 10.6419 6.40499C10.598 6.3168 10.5798 6.21803 10.5894 6.11999C10.5894 5.95499 10.5894 5.09999 10.5894 4.84499C10.5667 4.39778 10.5667 3.9497 10.5894 3.50249C10.6344 3.37499 10.9869 3.20249 11.1669 3.09749L11.8719 2.67749C12.3145 2.36152 12.7993 2.10907 13.3119 1.92749C13.7556 2.05637 14.1814 2.2403 14.5794 2.47499C15.0275 2.65251 15.447 2.89512 15.8244 3.19499Z" stroke="black" stroke-width="0.99" stroke-linecap="round" stroke-linejoin="round"/>
<path d="M10.8293 11.94C11.6618 12.345 12.4493 12.75 13.2743 13.17" stroke="black" stroke-width="0.74" stroke-linecap="round" stroke-linejoin="round"/>
<path d="M13.2744 13.1625L15.8844 11.6625" stroke="black" stroke-width="0.74" stroke-linecap="round" stroke-linejoin="round"/>
<path d="M13.3119 13.155C13.3119 14.115 13.3119 16.035 13.3119 16.035" stroke="black" stroke-width="0.74" stroke-linecap="round" stroke-linejoin="round"/>
<path d="M15.9669 11.6025C15.9949 12.0696 15.9949 12.5379 15.9669 13.005V14.2425C15.9669 14.3475 15.9669 14.4675 15.8994 14.535C15.8038 14.6021 15.7035 14.6622 15.5994 14.715L14.9394 15.09C14.6469 15.255 13.3719 16.0575 13.2969 16.0725C13.0886 15.999 12.8877 15.9061 12.6969 15.795L12.0594 15.48L11.1219 15C11.0025 14.9539 10.8892 14.8934 10.7844 14.82C10.7374 14.7328 10.7191 14.6331 10.7319 14.535C10.7319 14.37 10.7319 13.515 10.7319 13.26C10.7091 12.8128 10.7091 12.3647 10.7319 11.9175C10.7319 11.79 11.1294 11.6175 11.3094 11.5125L12.0669 11.0775C12.506 10.7646 12.9853 10.5123 13.4919 10.3275C13.935 10.4578 14.3607 10.6417 14.7594 10.875C15.1933 11.0609 15.5996 11.3057 15.9669 11.6025Z" stroke="black" stroke-width="0.99" stroke-linecap="round" stroke-linejoin="round"/>
<path d="M2.13687 11.58C2.99187 11.985 3.74187 12.3975 4.58187 12.81" stroke="black" stroke-width="0.74" stroke-linecap="round" stroke-linejoin="round"/>
<path d="M4.58188 12.8025L7.19188 11.3025" stroke="black" stroke-width="0.74" stroke-linecap="round" stroke-linejoin="round"/>
<path d="M4.61942 12.795C4.61942 13.755 4.61942 15.675 4.61942 15.675" stroke="black" stroke-width="0.74" stroke-linecap="round" stroke-linejoin="round"/>
<path d="M7.26692 11.25C7.29933 11.7169 7.29933 12.1855 7.26692 12.6525V13.8825C7.26692 13.995 7.30442 14.1075 7.20692 14.1825C7.11123 14.2472 7.01096 14.3048 6.90692 14.355L6.24692 14.73C5.95442 14.895 4.67192 15.705 4.60442 15.7125C4.39512 15.6448 4.19391 15.5542 4.00442 15.4425L3.35942 15.12L2.42942 14.6475C2.30893 14.6006 2.19539 14.5375 2.09192 14.46C2.04504 14.3727 2.02422 14.2738 2.03192 14.175C2.03192 14.01 2.03192 13.155 2.03192 12.9C2.00547 12.4529 2.00547 12.0046 2.03192 11.5575C2.03192 11.43 2.42192 11.265 2.60942 11.1525L3.30692 10.7325C3.75395 10.4193 4.24074 10.1671 4.75442 9.98248C5.19759 10.1128 5.62323 10.2967 6.02192 10.53C6.47133 10.7048 6.89122 10.9477 7.26692 11.25Z" stroke="black" stroke-width="0.99" stroke-linecap="round" stroke-linejoin="round"/>
<path d="M4.65686 7.67249C4.65686 8.08499 4.65686 8.90249 4.65686 8.90249" stroke="black" stroke-width="0.74" stroke-linecap="round" stroke-linejoin="round"/>
<path d="M7.24442 11.3325C7.82192 11.3325 8.97691 11.3325 8.97691 11.3325" stroke="black" stroke-width="0.74" stroke-linecap="round" stroke-linejoin="round"/>
<path d="M10.7469 6.27748L8.90189 6.23248" stroke="black" stroke-width="0.74" stroke-linecap="round" stroke-linejoin="round"/>
<path d="M13.4094 10.0575C13.4544 9.5775 13.4094 8.5575 13.4094 8.5575" stroke="black" stroke-width="0.74" stroke-linecap="round" stroke-linejoin="round"/>
</svg>
